<svg xmlns:xlink="http://www.w3.org/1999/xlink" xmlns="http://www.w3.org/2000/svg" width="1028" height="81" fill="none"><rect id="backgroundrect" width="100%" height="100%" x="0" y="0" fill="none" stroke="none" class="" style=""/>

























<defs>
<linearGradient id="paint0_linear" x1="0.5000175695999268" y1="0.03142479995526224" x2="0.5000175695999268" y2="0.9685753798588854">
<stop stop-color="#E1D2E8"/>
<stop offset="1" stop-color="#C9B5D9"/>
</linearGradient>
<linearGradient id="paint1_linear" x1="0.5000175695999268" y1="0.03142479995526224" x2="0.5000175695999268" y2="0.9685753798588854">
<stop stop-color="#C9B5D9"/>
<stop offset="1" stop-color="#E1D2E8"/>
</linearGradient>
<linearGradient id="paint2_linear" x1="0.5000000595503024" y1="0.03142479995526224" x2="0.5000000595503024" y2="0.9685751401066885">
<stop stop-color="#E1D2E8"/>
<stop offset="1" stop-color="#C9B5D9"/>
</linearGradient>
<linearGradient id="paint3_linear" x1="0.5000000595503024" y1="0.03142479995526224" x2="0.5000000595503024" y2="0.9685751401066885">
<stop stop-color="#C9B5D9"/>
<stop offset="1" stop-color="#E1D2E8"/>
</linearGradient>
</defs>
<g class="currentLayer" style=""><title>Layer 1</title><path d="M0,42.82936704673767 H1028 V80.67856704673767 H0 V42.82936704673767 z" fill="#F9F8FB" id="svg_1" class=""/><path fill-rule="evenodd" clip-rule="evenodd" d="M1005.19,58.66366704673767 C1006.01,58.66366704673767 1006.69,57.99266704673767 1006.69,57.17256704673767 C1006.69,56.35246704673767 1006.01,55.68146704673767 1005.19,55.68146704673767 C1004.36,55.68146704673767 1003.69,56.35246704673767 1003.69,57.17256704673767 C1003.69,57.99266704673767 1004.36,58.66366704673767 1005.19,58.66366704673767 zM1005.19,60.15476704673767 C1004.36,60.15476704673767 1003.69,60.825767046737674 1003.69,61.64586704673767 C1003.69,62.465967046737674 1004.36,63.13696704673767 1005.19,63.13696704673767 C1006.01,63.13696704673767 1006.69,62.465967046737674 1006.69,61.64586704673767 C1006.69,60.825767046737674 1006.01,60.15476704673767 1005.19,60.15476704673767 zM1005.19,64.62806704673767 C1004.36,64.62806704673767 1003.69,65.29906704673768 1003.69,66.11916704673767 C1003.69,66.93926704673767 1004.36,67.61026704673768 1005.19,67.61026704673768 C1006.01,67.61026704673768 1006.69,66.93926704673767 1006.69,66.11916704673767 C1006.69,65.29906704673768 1006.01,64.62806704673767 1005.19,64.62806704673767 z" fill="#391F5B" fill-opacity="0.84" id="svg_2" class=""/><rect x="964.5599975585938" y="53.19336676597595" width="15.985400199890137" height="15.91100025177002" rx="4.5" fill="url(#paint0_linear)" stroke="url(#paint1_linear)" id="svg_3" class=""/><path d="M971.128,64.71746704673767 C970.023,64.48696704673767 969.007,63.69036704673768 968.469,62.63116704673767 C968.34,62.374367046737675 968.184,61.91326704673767 968.111,61.57776704673767 C968.037,61.23636704673767 968.04,60.43966704673767 968.113,60.08956704673767 C968.175,59.80946704673767 968.36,59.26666704673767 968.446,59.12076704673767 C968.54,58.96026704673767 968.678,58.88736704673767 968.86,58.898967046737674 C969.165,58.92526704673767 969.327,59.208267046737674 969.201,59.50006704673767 C968.872,60.258767046737674 968.816,60.98246704673767 969.033,61.72076704673767 C969.315,62.69826704673767 970.076,63.49486704673767 971.025,63.81296704673767 C971.34,63.91796704673767 971.839,63.944267046737664 972.168,63.87126704673767 C972.874,63.71376704673767 973.426,63.29056704673768 973.743,62.66036704673767 C973.831,62.48236704673767 973.902,62.13216704673767 973.849,62.13216704673767 C973.837,62.13216704673767 973.773,62.17596704673767 973.705,62.231367046737674 C973.156,62.67196704673767 972.356,62.75076704673767 971.686,62.42976704673767 C971.363,62.27516704673767 971.005,61.91326704673767 970.837,61.57776704673767 C970.652,61.20426704673767 970.59,60.801567046737674 970.658,60.43096704673767 C970.69,60.26756704673767 970.69,60.26756704673767 970.57,60.092467046737674 C970.417,59.87356704673767 970.308,59.56426704673767 970.288,59.28996704673767 C970.217,58.493367046737674 970.928,57.469167046737674 971.872,57.00226704673767 C972.348,56.76596704673767 972.741,56.67546704673767 973.273,56.67546704673767 C974.196,56.67546704673767 975.021,57.04026704673767 975.756,57.76976704673767 C976.347,58.353367046737674 976.711,59.03326704673767 976.879,59.85606704673767 C976.949,60.188767046737674 976.946,60.99706704673767 976.879,61.32966704673767 C976.761,61.895767046737674 976.502,62.48526704673767 976.332,62.58156704673767 C976.129,62.69826704673767 975.859,62.62236704673767 975.753,62.41816704673767 C975.686,62.28676704673767 975.697,62.135067046737674 975.794,61.91036704673767 C976.12,61.16626704673767 976.173,60.45726704673767 975.956,59.713167046737674 C975.706,58.84646704673767 975.071,58.11116704673767 974.258,57.73766704673767 C973.876,57.56256704673767 973.743,57.53626704673767 973.258,57.53626704673767 C972.841,57.53626704673767 972.803,57.542167046737674 972.562,57.62676704673767 C971.96,57.83976704673767 971.498,58.25116704673767 971.237,58.79976704673767 C971.166,58.95156704673767 971.143,59.036167046737674 971.143,59.17616704673767 C971.143,59.275467046737674 971.152,59.36586704673767 971.163,59.37466704673767 C971.175,59.38626704673767 971.231,59.35716704673767 971.284,59.31046704673767 C971.437,59.17616704673767 971.713,59.02156704673767 971.913,58.95446704673767 C972.829,58.64806704673767 973.814,59.04486704673767 974.24,59.89406704673767 C974.428,60.27336704673767 974.481,60.62356704673767 974.416,61.06416704673767 C974.384,61.282967046737674 974.384,61.282967046737674 974.472,61.42896704673767 C974.595,61.62446704673767 974.678,61.88416704673767 974.701,62.14386704673767 C974.728,62.438567046737674 974.657,62.73326704673767 974.478,63.089267046737675 C974.084,63.86546704673768 973.373,64.43156704673767 972.483,64.67376704673767 C972.195,64.75256704673767 971.422,64.77876704673767 971.128,64.71746704673767 zM972.959,61.69736704673767 C973.164,61.60986704673767 973.397,61.37636704673767 973.496,61.16046704673767 C973.57,61.005767046737674 973.582,60.944567046737674 973.582,60.72856704673767 C973.582,60.50386704673767 973.573,60.46306704673767 973.482,60.28216704673767 C973.15,59.63436704673767 972.312,59.49716704673767 971.798,60.00496704673767 C971.634,60.16836704673767 971.557,60.30836704673767 971.51,60.53896704673767 C971.401,61.06416704673767 971.757,61.62146704673767 972.283,61.755767046737674 C972.439,61.79656704673767 972.803,61.76446704673767 972.959,61.69736704673767 z" fill="#391F5B" id="svg_4" class=""/><path d="M133.868,61.64586704673767 C133.868,53.95966704673767 140.13,47.72886704673767 147.855,47.72886704673767 H932.092 C939.816,47.72886704673767 946.078,53.95966704673767 946.078,61.64586704673767 C946.078,69.33196704673767 939.816,75.56276704673768 932.092,75.56276704673768 H147.855 C140.13,75.56276704673768 133.868,69.33196704673767 133.868,61.64586704673767 z" fill="#391F5B" fill-opacity="0.1" id="svg_5" class=""/><path fill-rule="evenodd" clip-rule="evenodd" d="M112.889,55.68926704673767 C112.706,55.66426704673767 112.514,55.71666704673767 112.367,55.84926704673767 L107.105,60.58776704673767 C106.842,60.82486704673767 106.821,61.22926704673767 107.057,61.49256704673767 C107.296,61.75776704673767 107.707,61.77906704673767 107.971,61.54026704673767 L108.367,61.18426704673767 V66.32266704673768 V66.61626704673768 C108.367,67.16526704673767 108.815,67.61036704673766 109.366,67.61036704673766 H109.655 H116.092 H116.38 C116.932,67.61036704673766 117.379,67.16526704673767 117.379,66.61626704673768 V66.32266704673768 V61.156467046737674 L117.806,61.54026704673767 C118.071,61.77906704673767 118.481,61.75776704673767 118.72,61.49256704673767 C118.957,61.22926704673767 118.936,60.82486704673767 118.672,60.58776704673767 L113.41,55.84926704673767 C113.263,55.71666704673767 113.072,55.66426704673767 112.889,55.68926704673767 zM109.655,60.02486704673767 V60.87846704673767 V61.830467046737674 V61.87256704673767 V64.33456704673767 V65.62216704673767 V65.66426704673768 V66.32266704673768 H110.321 H110.365 H111.653 H114.094 H115.381 H115.425 H116.092 V65.66426704673768 V65.62216704673767 V64.33456704673767 V61.87256704673767 V61.830467046737674 V60.87846704673767 V59.99706704673767 L112.889,57.112367046737674 L109.655,60.02486704673767 z" fill="#391F5B" fill-opacity="0.84" id="svg_6" class=""/><path fill-rule="evenodd" clip-rule="evenodd" d="M87.9109,59.98696704673767 V56.481167046737674 C87.9109,56.18296704673767 87.5513,56.03726704673767 87.3448,56.24926704673767 L86.1593,57.42896704673767 C84.9538,56.22946704673767 83.2355,55.54026704673767 81.3573,55.70586704673767 C78.5667,55.95776704673767 76.2689,58.19096704673767 75.9625,60.96786704673767 C75.5629,64.55966704673767 78.3802,67.60826704673767 81.9167,67.60826704673767 C84.9738,67.60826704673767 87.498,65.32856704673767 87.8643,62.38606704673767 C87.9109,61.98846704673767 87.5979,61.64376704673767 87.1983,61.64376704673767 C86.8652,61.64376704673767 86.5855,61.88906704673767 86.5455,62.21366704673767 C86.2592,64.52656704673767 84.2545,66.31596704673767 81.8501,66.28276704673767 C79.3792,66.24966704673767 77.2945,64.17526704673767 77.2546,61.709967046737674 C77.2146,59.12556704673767 79.326,57.00476704673767 81.9167,57.00476704673767 C83.2022,57.00476704673767 84.3677,57.52836704673767 85.2135,58.36336704673767 L83.8216,59.74846704673767 C83.6084,59.96046704673767 83.755,60.31836704673767 84.0547,60.31836704673767 H87.5779 C87.7644,60.31836704673767 87.9109,60.17256704673767 87.9109,59.98696704673767 z" fill="#391F5B" fill-opacity="0.84" id="svg_7" class=""/><path fill-rule="evenodd" clip-rule="evenodd" d="M45.7241,62.25926704673767 H54.3178 L50.5633,65.99506704673767 C50.2633,66.29356704673766 50.2633,66.78356704673767 50.5633,67.08206704673768 C50.8633,67.38066704673767 51.3481,67.38066704673767 51.6481,67.08206704673768 L56.718,62.03726704673767 C57.0181,61.73876704673767 57.0181,61.25636704673767 56.718,60.95786704673767 L51.6558,55.90546704673767 C51.3557,55.60676704673767 50.871,55.60676704673767 50.571,55.90546704673767 C50.271,56.203967046737674 50.271,56.68616704673767 50.571,56.98476704673767 L54.3178,60.728167046737674 H45.7241 C45.3009,60.728167046737674 44.9548,61.07266704673767 44.9548,61.49366704673767 C44.9548,61.91476704673767 45.3009,62.25926704673767 45.7241,62.25926704673767 z" fill="#391F5B" fill-opacity="0.5" id="svg_8" class=""/><path fill-rule="evenodd" clip-rule="evenodd" d="M25.2039,60.728167046737674 H16.6103 L20.3647,56.99246704673767 C20.6647,56.69396704673767 20.6647,56.203967046737674 20.3647,55.90546704673767 C20.0647,55.60676704673767 19.58,55.60676704673767 19.28,55.90546704673767 L14.21,60.95026704673767 C13.9099,61.24876704673767 13.9099,61.73106704673767 14.21,62.02956704673767 L19.28,67.07436704673768 C19.58,67.37306704673767 20.0647,67.37306704673767 20.3647,67.07436704673768 C20.6647,66.77586704673767 20.6647,66.29356704673766 20.3647,65.99506704673767 L16.6103,62.25926704673767 H25.2039 C25.6271,62.25926704673767 25.973300000000002,61.91476704673767 25.973300000000002,61.49366704673767 C25.973300000000002,61.07266704673767 25.6271,60.728167046737674 25.2039,60.728167046737674 z" fill="#391F5B" fill-opacity="0.84" id="svg_9" class=""/><path d="M0,21.93696704673767 C0,9.821567046737671 9.40198,4.673767084462099e-8 21,4.673767084462099e-8 H1007 C1018.6,4.673767084462099e-8 1028,9.821567046737671 1028,21.93696704673767 V42.82936704673767 H0 V21.93696704673767 z" fill="#A18EB4" id="svg_10" class=""/><path fill-rule="evenodd" clip-rule="evenodd" d="M73.0714,43.255567046737674 C74.4574,42.08606704673767 77.6913,41.50136704673767 79.0772,33.31486704673767 V43.255567046737674 H73.0714 z" fill="#F9F8FB" id="svg_11" class=""/><path d="M258.752,45.74076704673767 V23.37416704673767 C258.752,14.315567046737671 251.357,6.972047046737671 242.236,6.972047046737671 H95.0928 C85.9712,6.972047046737671 78.5768,14.315567046737671 78.5768,23.37416704673767 V45.74076704673767 H258.752 z" fill="#F9F8FB" id="svg_12" class=""/><rect x="87.58599853515625" y="18.40096640586853" width="16.01460075378418" height="15.91100025177002" rx="4.5" fill="url(#paint2_linear)" stroke="url(#paint3_linear)" id="svg_13" class=""/><path d="M94.1662,29.92506704673767 C93.0592,29.69456704673767 92.0406,28.89796704673767 91.5019,27.838767046737672 C91.3723,27.58196704673767 91.2163,27.120867046737672 91.1427,26.785367046737672 C91.0691,26.443867046737672 91.072,25.64726704673767 91.1456,25.29716704673767 C91.2074,25.016967046737673 91.3929,24.474267046737673 91.4783,24.32836704673767 C91.5725,24.167867046737673 91.7109,24.094867046737672 91.8934,24.10656704673767 C92.1996,24.132867046737672 92.3615,24.41586704673767 92.2349,24.707667046737672 C91.9052,25.46636704673767 91.8492,26.19006704673767 92.0671,26.92826704673767 C92.3497,27.905867046737672 93.1122,28.70246704673767 94.0632,29.02056704673767 C94.3782,29.12556704673767 94.8787,29.15186704673767 95.2084,29.07886704673767 C95.915,28.921267046737672 96.4684,28.49816704673767 96.7864,27.867867046737672 C96.8747,27.68986704673767 96.9454,27.33976704673767 96.8924,27.33976704673767 C96.8806,27.33976704673767 96.8158,27.38346704673767 96.7481,27.43896704673767 C96.1976,27.87956704673767 95.3968,27.95836704673767 94.7256,27.637367046737673 C94.4017,27.48276704673767 94.0426,27.120867046737672 93.8747,26.785367046737672 C93.6893,26.411767046737673 93.6274,26.00916704673767 93.6952,25.63856704673767 C93.7275,25.47516704673767 93.7275,25.47516704673767 93.6068,25.30006704673767 C93.4537,25.081167046737672 93.3448,24.771867046737672 93.3242,24.49756704673767 C93.2536,23.70096704673767 93.966,22.67676704673767 94.911,22.20986704673767 C95.388,21.97346704673767 95.7825,21.883067046737672 96.3153,21.883067046737672 C97.2398,21.883067046737672 98.067,22.24776704673767 98.8031,22.97726704673767 C99.3948,23.56086704673767 99.76,24.24076704673767 99.928,25.06366704673767 C99.998,25.39636704673767 99.995,26.204667046737672 99.928,26.53726704673767 C99.81,27.10336704673767 99.551,27.69286704673767 99.3801,27.78906704673767 C99.1769,27.905867046737672 98.9061,27.82996704673767 98.8001,27.62566704673767 C98.7324,27.494367046737672 98.7442,27.34266704673767 98.8413,27.11796704673767 C99.1681,26.373867046737672 99.2211,25.664767046737673 99.0032,24.92066704673767 C98.753,24.05406704673767 98.1171,23.318767046737673 97.3016,22.94516704673767 C96.9189,22.770167046737672 96.7864,22.74386704673767 96.3006,22.74386704673767 C95.8826,22.74386704673767 95.8443,22.74966704673767 95.6029,22.834367046737672 C94.9994,23.04736704673767 94.5371,23.45876704673767 94.2751,24.00736704673767 C94.2045,24.159067046737672 94.1809,24.24376704673767 94.1809,24.38376704673767 C94.1809,24.48296704673767 94.1898,24.573467046737672 94.2015,24.58226704673767 C94.2133,24.59386704673767 94.2692,24.56466704673767 94.3222,24.51806704673767 C94.4753,24.38376704673767 94.7521,24.229167046737672 94.9523,24.162067046737672 C95.8708,23.855667046737672 96.857,24.25246704673767 97.2839,25.10166704673767 C97.4723,25.48096704673767 97.5253,25.831167046737672 97.4606,26.271767046737672 C97.4282,26.49056704673767 97.4282,26.49056704673767 97.5165,26.63646704673767 C97.6402,26.83196704673767 97.7226,27.091667046737673 97.7461,27.35136704673767 C97.7726,27.64616704673767 97.702,27.940867046737672 97.5224,28.29686704673767 C97.1279,29.07306704673767 96.4154,29.639167046737672 95.5234,29.881367046737672 C95.2349,29.96016704673767 94.4606,29.98636704673767 94.1662,29.92506704673767 zM96.0003,26.90496704673767 C96.2064,26.817467046737672 96.439,26.58396704673767 96.5391,26.36806704673767 C96.6127,26.21336704673767 96.6245,26.15206704673767 96.6245,25.936167046737673 C96.6245,25.71146704673767 96.6156,25.67066704673767 96.5244,25.489767046737672 C96.1917,24.841967046737672 95.3526,24.704767046737672 94.8374,25.21246704673767 C94.6726,25.37596704673767 94.596,25.51596704673767 94.5489,25.74646704673767 C94.44,26.271767046737672 94.7962,26.82906704673767 95.3232,26.96336704673767 C95.4792,27.00416704673767 95.8443,26.97206704673767 96.0003,26.90496704673767 z" fill="#391F5B" id="svg_14" class=""/><path d="M119.388,21.366167046737672 C119.541,21.366167046737672 119.665,21.417867046737673 119.761,21.52126704673767 C119.857,21.61666704673767 119.905,21.73996704673767 119.905,21.89106704673767 V29.13186704673767 C119.905,29.29886704673767 119.849,29.43806704673767 119.737,29.54936704673767 C119.633,29.66066704673767 119.496,29.71636704673767 119.328,29.71636704673767 C119.24,29.71636704673767 119.152,29.704467046737673 119.064,29.68056704673767 C118.984,29.64876704673767 118.92,29.60506704673767 118.872,29.54936704673767 L114.151,23.44176704673767 V29.19146704673767 C114.151,29.34256704673767 114.099,29.469867046737672 113.995,29.57326704673767 C113.899,29.66866704673767 113.775,29.71636704673767 113.623,29.71636704673767 C113.471,29.71636704673767 113.346,29.66866704673767 113.25,29.57326704673767 C113.154,29.469867046737672 113.106,29.34256704673767 113.106,29.19146704673767 V21.93876704673767 C113.106,21.771767046737672 113.158,21.63656704673767 113.262,21.53316704673767 C113.375,21.42186704673767 113.511,21.366167046737672 113.671,21.366167046737672 C113.767,21.366167046737672 113.859,21.386067046737672 113.947,21.42586704673767 C114.035,21.457667046737672 114.103,21.50536704673767 114.151,21.568967046737672 L118.86,27.68846704673767 V21.89106704673767 C118.86,21.73996704673767 118.908,21.61666704673767 119.004,21.52126704673767 C119.108,21.417867046737673 119.236,21.366167046737672 119.388,21.366167046737672 zM127.485,26.352467046737672 C127.477,26.49556704673767 127.417,26.61886704673767 127.305,26.72226704673767 C127.193,26.81766704673767 127.061,26.86536704673767 126.909,26.86536704673767 H122.681 C122.737,27.44596704673767 122.957,27.91116704673767 123.341,28.261067046737672 C123.734,28.61096704673767 124.21,28.78596704673767 124.771,28.78596704673767 C125.155,28.78596704673767 125.467,28.73026704673767 125.707,28.61896704673767 C125.948,28.50756704673767 126.16,28.364467046737673 126.344,28.189467046737672 C126.464,28.117867046737672 126.58,28.08216704673767 126.692,28.08216704673767 C126.829,28.08216704673767 126.941,28.129867046737672 127.029,28.22526704673767 C127.125,28.32066704673767 127.173,28.43206704673767 127.173,28.55926704673767 C127.173,28.72626704673767 127.093,28.87736704673767 126.933,29.012567046737672 C126.7,29.24316704673767 126.392,29.43806704673767 126.008,29.59706704673767 C125.623,29.75616704673767 125.231,29.835667046737672 124.831,29.835667046737672 C124.182,29.835667046737672 123.609,29.70046704673767 123.113,29.430067046737673 C122.624,29.15966704673767 122.244,28.78196704673767 121.972,28.29686704673767 C121.708,27.81176704673767 121.575,27.26296704673767 121.575,26.65066704673767 C121.575,25.98266704673767 121.712,25.398167046737672 121.984,24.89716704673767 C122.264,24.38816704673767 122.629,23.99846704673767 123.077,23.72806704673767 C123.533,23.457667046737672 124.022,23.32256704673767 124.542,23.32256704673767 C125.055,23.32256704673767 125.535,23.45376704673767 125.984,23.71616704673767 C126.432,23.97856704673767 126.793,24.340467046737672 127.065,24.80166704673767 C127.337,25.26296704673767 127.477,25.77986704673767 127.485,26.352467046737672 zM124.542,24.372267046737672 C124.094,24.372267046737672 123.706,24.49946704673767 123.377,24.75396704673767 C123.049,25.000467046737672 122.833,25.386167046737672 122.729,25.91106704673767 H126.272 V25.815667046737673 C126.232,25.39416704673767 126.04,25.04826704673767 125.695,24.777867046737672 C125.359,24.50746704673767 124.975,24.372267046737672 124.542,24.372267046737672 zM136.362,23.40606704673767 C136.514,23.40606704673767 136.642,23.46166704673767 136.746,23.57306704673767 C136.858,23.67636704673767 136.914,23.81156704673767 136.914,23.97856704673767 C136.914,24.03426704673767 136.898,24.10986704673767 136.866,24.20526704673767 L135.029,29.358467046737672 C134.981,29.48576704673767 134.9,29.581167046737672 134.788,29.64476704673767 C134.676,29.70846704673767 134.556,29.73226704673767 134.428,29.71636704673767 C134.212,29.70046704673767 134.048,29.581167046737672 133.935,29.358467046737672 L132.686,26.11386704673767 L131.533,29.358467046737672 C131.485,29.469867046737672 131.417,29.55736704673767 131.329,29.620967046737672 C131.241,29.67656704673767 131.145,29.70846704673767 131.041,29.71636704673767 C130.921,29.73226704673767 130.8,29.70846704673767 130.68,29.64476704673767 C130.568,29.57326704673767 130.492,29.47776704673767 130.452,29.358467046737672 L128.59,24.20526704673767 C128.566,24.13366704673767 128.554,24.058167046737672 128.554,23.97856704673767 C128.554,23.81956704673767 128.606,23.68436704673767 128.71,23.57306704673767 C128.815,23.46166704673767 128.951,23.40606704673767 129.119,23.40606704673767 C129.391,23.40606704673767 129.567,23.52526704673767 129.647,23.763867046737673 L131.077,27.783867046737672 L132.218,24.81366704673767 C132.314,24.575067046737672 132.49,24.45576704673767 132.746,24.45576704673767 C132.987,24.45576704673767 133.151,24.575067046737672 133.239,24.81366704673767 L134.404,27.73616704673767 L135.809,23.763867046737673 C135.897,23.52526704673767 136.082,23.40606704673767 136.362,23.40606704673767 zM147.478,21.366167046737672 C147.646,21.366167046737672 147.782,21.417867046737673 147.886,21.52126704673767 C147.998,21.61666704673767 148.054,21.74786704673767 148.054,21.914967046737672 C148.054,22.08196704673767 147.998,22.21316704673767 147.886,22.30856704673767 C147.782,22.40396704673767 147.646,22.451667046737672 147.478,22.451667046737672 H145.34 V29.143767046737672 C145.34,29.30286704673767 145.28,29.43806704673767 145.159,29.54936704673767 C145.047,29.66066704673767 144.903,29.71636704673767 144.727,29.71636704673767 C144.551,29.71636704673767 144.403,29.66066704673767 144.283,29.54936704673767 C144.17,29.43806704673767 144.114,29.30286704673767 144.114,29.143767046737672 V22.451667046737672 H141.988 C141.82,22.451667046737672 141.68,22.40396704673767 141.568,22.30856704673767 C141.464,22.20516704673767 141.412,22.06996704673767 141.412,21.902967046737672 C141.412,21.74396704673767 141.464,21.61666704673767 141.568,21.52126704673767 C141.68,21.417867046737673 141.82,21.366167046737672 141.988,21.366167046737672 H147.478 zM153.402,23.38216704673767 C153.571,23.38216704673767 153.707,23.437867046737672 153.811,23.549167046737672 C153.923,23.652567046737673 153.979,23.79176704673767 153.979,23.966667046737673 V29.143767046737672 C153.979,29.30286704673767 153.923,29.43806704673767 153.811,29.54936704673767 C153.707,29.66066704673767 153.571,29.71636704673767 153.402,29.71636704673767 C153.234,29.71636704673767 153.098,29.66466704673767 152.994,29.561267046737672 C152.89,29.449967046737672 152.838,29.31076704673767 152.838,29.143767046737672 V28.83366704673767 C152.63,29.11196704673767 152.345,29.35056704673767 151.985,29.54936704673767 C151.625,29.74026704673767 151.236,29.835667046737672 150.82,29.835667046737672 C150.275,29.835667046737672 149.779,29.69646704673767 149.33,29.418167046737672 C148.89,29.13976704673767 148.542,28.75406704673767 148.285,28.261067046737672 C148.037,27.76006704673767 147.913,27.19936704673767 147.913,26.57906704673767 C147.913,25.95876704673767 148.037,25.40206704673767 148.285,24.909067046737672 C148.542,24.40806704673767 148.89,24.01836704673767 149.33,23.74006704673767 C149.771,23.46166704673767 150.255,23.32256704673767 150.784,23.32256704673767 C151.208,23.32256704673767 151.601,23.40996704673767 151.961,23.58496704673767 C152.329,23.75986704673767 152.622,23.98256704673767 152.838,24.25296704673767 V23.966667046737673 C152.838,23.79966704673767 152.89,23.660467046737672 152.994,23.549167046737672 C153.098,23.437867046737672 153.234,23.38216704673767 153.402,23.38216704673767 zM150.952,28.78596704673767 C151.328,28.78596704673767 151.661,28.69046704673767 151.949,28.49966704673767 C152.245,28.30876704673767 152.473,28.04636704673767 152.634,27.712367046737672 C152.802,27.378367046737672 152.886,27.00056704673767 152.886,26.57906704673767 C152.886,26.16556704673767 152.802,25.79176704673767 152.634,25.457767046737672 C152.473,25.123767046737672 152.245,24.86136704673767 151.949,24.67046704673767 C151.661,24.47166704673767 151.328,24.372267046737672 150.952,24.372267046737672 C150.576,24.372267046737672 150.239,24.46766704673767 149.943,24.65856704673767 C149.655,24.849367046737672 149.427,25.11186704673767 149.258,25.44586704673767 C149.098,25.77986704673767 149.018,26.15756704673767 149.018,26.57906704673767 C149.018,27.00056704673767 149.098,27.378367046737672 149.258,27.712367046737672 C149.427,28.04636704673767 149.655,28.30876704673767 149.943,28.49966704673767 C150.239,28.69046704673767 150.576,28.78596704673767 150.952,28.78596704673767 zM159.035,23.32256704673767 C159.579,23.32256704673767 160.072,23.46166704673767 160.512,23.74006704673767 C160.953,24.01836704673767 161.297,24.40406704673767 161.545,24.89716704673767 C161.802,25.39016704673767 161.93,25.946867046737673 161.93,26.56716704673767 C161.93,27.18746704673767 161.802,27.74806704673767 161.545,28.24916704673767 C161.297,28.750167046737673 160.953,29.13976704673767 160.512,29.418167046737672 C160.072,29.69646704673767 159.587,29.835667046737672 159.059,29.835667046737672 C158.642,29.835667046737672 158.254,29.744167046737672 157.894,29.561267046737672 C157.533,29.378367046737672 157.241,29.15176704673767 157.017,28.881367046737672 V29.22726704673767 C157.017,29.38636704673767 156.961,29.521567046737673 156.849,29.632867046737672 C156.745,29.744167046737672 156.608,29.79986704673767 156.44,29.79986704673767 C156.28,29.79986704673767 156.144,29.74816704673767 156.032,29.64476704673767 C155.928,29.53346704673767 155.876,29.39426704673767 155.876,29.22726704673767 V21.46166704673767 C155.876,21.294567046737672 155.928,21.15946704673767 156.032,21.05606704673767 C156.136,20.94466704673767 156.272,20.889067046737672 156.44,20.889067046737672 C156.608,20.889067046737672 156.745,20.94466704673767 156.849,21.05606704673767 C156.961,21.16736704673767 157.017,21.30256704673767 157.017,21.46166704673767 V24.372267046737672 C157.209,24.08596704673767 157.489,23.83946704673767 157.858,23.63266704673767 C158.226,23.42586704673767 158.618,23.32256704673767 159.035,23.32256704673767 zM158.903,28.78596704673767 C159.271,28.78596704673767 159.603,28.69046704673767 159.9,28.49966704673767 C160.196,28.30086704673767 160.424,28.03436704673767 160.584,27.70036704673767 C160.753,27.358467046737672 160.837,26.980667046737672 160.837,26.56716704673767 C160.837,26.15366704673767 160.753,25.77986704673767 160.584,25.44586704673767 C160.424,25.11186704673767 160.196,24.849367046737672 159.9,24.65856704673767 C159.603,24.46766704673767 159.271,24.372267046737672 158.903,24.372267046737672 C158.526,24.372267046737672 158.19,24.46766704673767 157.894,24.65856704673767 C157.597,24.849367046737672 157.365,25.11186704673767 157.197,25.44586704673767 C157.037,25.771867046737672 156.957,26.14566704673767 156.957,26.56716704673767 C156.957,26.98866704673767 157.037,27.366367046737672 157.197,27.70036704673767 C157.365,28.03436704673767 157.597,28.30086704673767 157.894,28.49966704673767 C158.19,28.69046704673767 158.526,28.78596704673767 158.903,28.78596704673767 zM167.346,26.85346704673767 C167.186,26.85346704673767 167.05,26.80176704673767 166.938,26.698367046737673 C166.825,26.587067046737673 166.769,26.44786704673767 166.769,26.280867046737672 C166.769,26.12186704673767 166.825,25.99056704673767 166.938,25.88726704673767 C167.05,25.783867046737672 167.186,25.732167046737672 167.346,25.732167046737672 H169.652 C169.812,25.732167046737672 169.944,25.78776704673767 170.049,25.89916704673767 C170.161,26.00256704673767 170.217,26.13776704673767 170.217,26.30476704673767 C170.217,26.463767046737672 170.161,26.594967046737672 170.049,26.698367046737673 C169.944,26.80176704673767 169.812,26.85346704673767 169.652,26.85346704673767 H167.346 zM178.135,29.835667046737672 C177.551,29.835667046737672 177.034,29.75616704673767 176.586,29.59706704673767 C176.137,29.430067046737673 175.709,29.16366704673767 175.301,28.79786704673767 C175.132,28.65466704673767 175.048,28.49166704673767 175.048,28.30876704673767 C175.048,28.16566704673767 175.104,28.038367046737672 175.217,27.927067046737672 C175.329,27.80776704673767 175.461,27.74806704673767 175.613,27.74806704673767 C175.749,27.74806704673767 175.865,27.79186704673767 175.961,27.87936704673767 C176.282,28.17356704673767 176.61,28.392267046737672 176.946,28.535467046737672 C177.291,28.67056704673767 177.679,28.738167046737672 178.111,28.738167046737672 C178.616,28.738167046737672 179.04,28.62286704673767 179.385,28.392267046737672 C179.737,28.16166704673767 179.913,27.87136704673767 179.913,27.52146704673767 C179.905,27.10796704673767 179.729,26.789867046737672 179.385,26.56716704673767 C179.048,26.33656704673767 178.532,26.14566704673767 177.835,25.99456704673767 C177.01,25.82756704673767 176.374,25.55316704673767 175.925,25.17146704673767 C175.485,24.789767046737673 175.265,24.260967046737672 175.265,23.58496704673767 C175.265,23.11576704673767 175.389,22.706167046737672 175.637,22.35626704673767 C175.885,21.99846704673767 176.23,21.72406704673767 176.67,21.53316704673767 C177.11,21.34236704673767 177.607,21.24686704673767 178.159,21.24686704673767 C178.656,21.24686704673767 179.124,21.326467046737672 179.565,21.48546704673767 C180.005,21.64456704673767 180.362,21.85526704673767 180.634,22.117667046737672 C180.818,22.27676704673767 180.91,22.44776704673767 180.91,22.63066704673767 C180.91,22.77376704673767 180.854,22.901067046737673 180.742,23.012367046737673 C180.638,23.123667046737673 180.51,23.17936704673767 180.358,23.17936704673767 C180.245,23.17936704673767 180.153,23.14756704673767 180.081,23.08396704673767 C179.873,22.87716704673767 179.585,22.70226704673767 179.216,22.55906704673767 C178.848,22.41596704673767 178.496,22.34436704673767 178.159,22.34436704673767 C177.623,22.34436704673767 177.194,22.45566704673767 176.874,22.67836704673767 C176.562,22.89306704673767 176.406,23.17936704673767 176.406,23.53726704673767 C176.406,23.92686704673767 176.562,24.22516704673767 176.874,24.431867046737672 C177.194,24.63866704673767 177.667,24.81366704673767 178.292,24.95676704673767 C178.916,25.091967046737672 179.425,25.25096704673767 179.817,25.43396704673767 C180.217,25.61686704673767 180.526,25.87126704673767 180.742,26.19736704673767 C180.958,26.52346704673767 181.066,26.94886704673767 181.066,27.47376704673767 C181.066,27.934967046737672 180.934,28.34456704673767 180.67,28.70246704673767 C180.414,29.06026704673767 180.061,29.338667046737672 179.613,29.53746704673767 C179.164,29.73626704673767 178.672,29.835667046737672 178.135,29.835667046737672 zM185.795,23.35826704673767 C186.339,23.35826704673767 186.832,23.497467046737672 187.272,23.77576704673767 C187.713,24.046167046737672 188.057,24.42796704673767 188.305,24.920967046737672 C188.562,25.41406704673767 188.69,25.97076704673767 188.69,26.59106704673767 C188.69,27.21136704673767 188.562,27.76796704673767 188.305,28.261067046737672 C188.057,28.74616704673767 187.713,29.12786704673767 187.272,29.40626704673767 C186.832,29.684567046737673 186.347,29.82376704673767 185.819,29.82376704673767 C185.402,29.82376704673767 185.014,29.73226704673767 184.654,29.54936704673767 C184.293,29.36646704673767 184.001,29.143767046737672 183.777,28.881367046737672 V31.529567046737668 C183.777,31.688567046737674 183.721,31.82376704673767 183.609,31.935167046737668 C183.505,32.04646704673767 183.368,32.10216704673767 183.2,32.10216704673767 C183.04,32.10216704673767 182.904,32.04646704673767 182.792,31.935167046737668 C182.688,31.831767046737674 182.636,31.69656704673767 182.636,31.529567046737668 V24.026367046737672 C182.636,23.85926704673767 182.688,23.72016704673767 182.792,23.608767046737672 C182.896,23.497467046737672 183.032,23.44176704673767 183.2,23.44176704673767 C183.368,23.44176704673767 183.505,23.497467046737672 183.609,23.608767046737672 C183.721,23.72016704673767 183.777,23.85926704673767 183.777,24.026367046737672 V24.372267046737672 C183.969,24.09396704673767 184.249,23.855367046737673 184.618,23.65656704673767 C184.986,23.457667046737672 185.378,23.35826704673767 185.795,23.35826704673767 zM185.663,28.77396704673767 C186.031,28.77396704673767 186.363,28.678567046737673 186.66,28.48766704673767 C186.956,28.29686704673767 187.184,28.038367046737672 187.344,27.712367046737672 C187.513,27.378367046737672 187.597,27.00456704673767 187.597,26.59106704673767 C187.597,26.17746704673767 187.513,25.80766704673767 187.344,25.48166704673767 C187.184,25.14766704673767 186.956,24.88516704673767 186.66,24.69436704673767 C186.363,24.503467046737672 186.031,24.40806704673767 185.663,24.40806704673767 C185.286,24.40806704673767 184.95,24.503467046737672 184.654,24.69436704673767 C184.357,24.87726704673767 184.125,25.13566704673767 183.957,25.46966704673767 C183.797,25.803667046737672 183.717,26.17746704673767 183.717,26.59106704673767 C183.717,27.00456704673767 183.797,27.378367046737672 183.957,27.712367046737672 C184.125,28.04636704673767 184.357,28.30876704673767 184.654,28.49966704673767 C184.95,28.68256704673767 185.286,28.77396704673767 185.663,28.77396704673767 zM195.319,23.38216704673767 C195.487,23.38216704673767 195.623,23.437867046737672 195.727,23.549167046737672 C195.84,23.652567046737673 195.896,23.79176704673767 195.896,23.966667046737673 V29.143767046737672 C195.896,29.30286704673767 195.84,29.43806704673767 195.727,29.54936704673767 C195.623,29.66066704673767 195.487,29.71636704673767 195.319,29.71636704673767 C195.151,29.71636704673767 195.015,29.66466704673767 194.911,29.561267046737672 C194.807,29.449967046737672 194.755,29.31076704673767 194.755,29.143767046737672 V28.83366704673767 C194.546,29.11196704673767 194.262,29.35056704673767 193.902,29.54936704673767 C193.541,29.74026704673767 193.153,29.835667046737672 192.737,29.835667046737672 C192.192,29.835667046737672 191.696,29.69646704673767 191.247,29.418167046737672 C190.807,29.13976704673767 190.458,28.75406704673767 190.202,28.261067046737672 C189.954,27.76006704673767 189.83,27.19936704673767 189.83,26.57906704673767 C189.83,25.95876704673767 189.954,25.40206704673767 190.202,24.909067046737672 C190.458,24.40806704673767 190.807,24.01836704673767 191.247,23.74006704673767 C191.688,23.46166704673767 192.172,23.32256704673767 192.701,23.32256704673767 C193.125,23.32256704673767 193.517,23.40996704673767 193.878,23.58496704673767 C194.246,23.75986704673767 194.538,23.98256704673767 194.755,24.25296704673767 V23.966667046737673 C194.755,23.79966704673767 194.807,23.660467046737672 194.911,23.549167046737672 C195.015,23.437867046737672 195.151,23.38216704673767 195.319,23.38216704673767 zM192.869,28.78596704673767 C193.245,28.78596704673767 193.577,28.69046704673767 193.866,28.49966704673767 C194.162,28.30876704673767 194.39,28.04636704673767 194.55,27.712367046737672 C194.718,27.378367046737672 194.803,27.00056704673767 194.803,26.57906704673767 C194.803,26.16556704673767 194.718,25.79176704673767 194.55,25.457767046737672 C194.39,25.123767046737672 194.162,24.86136704673767 193.866,24.67046704673767 C193.577,24.47166704673767 193.245,24.372267046737672 192.869,24.372267046737672 C192.492,24.372267046737672 192.156,24.46766704673767 191.86,24.65856704673767 C191.571,24.849367046737672 191.343,25.11186704673767 191.175,25.44586704673767 C191.015,25.77986704673767 190.935,26.15756704673767 190.935,26.57906704673767 C190.935,27.00056704673767 191.015,27.378367046737672 191.175,27.712367046737672 C191.343,28.04636704673767 191.571,28.30876704673767 191.86,28.49966704673767 C192.156,28.69046704673767 192.492,28.78596704673767 192.869,28.78596704673767 zM199.498,24.575067046737672 V28.129867046737672 C199.498,28.52746704673767 199.678,28.72626704673767 200.039,28.72626704673767 C200.095,28.72626704673767 200.171,28.71436704673767 200.267,28.69046704673767 C200.363,28.658667046737673 200.439,28.64276704673767 200.495,28.64276704673767 C200.599,28.64276704673767 200.687,28.686467046737672 200.759,28.77396704673767 C200.831,28.861467046737673 200.867,28.972767046737673 200.867,29.10796704673767 C200.867,29.27496704673767 200.771,29.418167046737672 200.579,29.53746704673767 C200.387,29.65676704673767 200.171,29.71636704673767 199.931,29.71636704673767 C199.666,29.71636704673767 199.422,29.68856704673767 199.198,29.632867046737672 C198.982,29.57716704673767 198.785,29.43806704673767 198.609,29.215367046737672 C198.441,28.98476704673767 198.357,28.63876704673767 198.357,28.17756704673767 V24.575067046737672 H197.66 C197.508,24.575067046737672 197.38,24.52736704673767 197.276,24.431867046737672 C197.18,24.32856704673767 197.132,24.20126704673767 197.132,24.05016704673767 C197.132,23.89906704673767 197.18,23.77576704673767 197.276,23.680367046737672 C197.38,23.58496704673767 197.508,23.53726704673767 197.66,23.53726704673767 H198.357 V22.53516704673767 C198.357,22.37616704673767 198.409,22.24096704673767 198.513,22.12966704673767 C198.625,22.01826704673767 198.765,21.96266704673767 198.934,21.96266704673767 C199.094,21.96266704673767 199.226,22.01826704673767 199.33,22.12966704673767 C199.442,22.24096704673767 199.498,22.37616704673767 199.498,22.53516704673767 V23.53726704673767 H200.495 C200.647,23.53726704673767 200.771,23.58896704673767 200.867,23.692267046737673 C200.972,23.78776704673767 201.024,23.91096704673767 201.024,24.06206704673767 C201.024,24.21316704673767 200.972,24.33646704673767 200.867,24.431867046737672 C200.771,24.52736704673767 200.647,24.575067046737672 200.495,24.575067046737672 H199.498 zM203.637,29.143767046737672 C203.637,29.30286704673767 203.581,29.43806704673767 203.469,29.54936704673767 C203.365,29.66066704673767 203.229,29.71636704673767 203.061,29.71636704673767 C202.9,29.71636704673767 202.764,29.66066704673767 202.652,29.54936704673767 C202.548,29.43806704673767 202.496,29.30286704673767 202.496,29.143767046737672 V23.97856704673767 C202.496,23.81956704673767 202.548,23.68436704673767 202.652,23.57306704673767 C202.764,23.46166704673767 202.9,23.40606704673767 203.061,23.40606704673767 C203.229,23.40606704673767 203.365,23.46166704673767 203.469,23.57306704673767 C203.581,23.68436704673767 203.637,23.81956704673767 203.637,23.97856704673767 V29.143767046737672 zM203.061,22.61876704673767 C202.828,22.61876704673767 202.66,22.57896704673767 202.556,22.49946704673767 C202.46,22.411967046737672 202.412,22.27676704673767 202.412,22.09386704673767 V21.902967046737672 C202.412,21.712167046737672 202.464,21.57696704673767 202.568,21.497367046737672 C202.68,21.417867046737673 202.848,21.37816704673767 203.073,21.37816704673767 C203.297,21.37816704673767 203.457,21.42186704673767 203.553,21.509367046737673 C203.657,21.588867046737672 203.709,21.72006704673767 203.709,21.902967046737672 V22.09386704673767 C203.709,22.28466704673767 203.657,22.41986704673767 203.553,22.49946704673767 C203.449,22.57896704673767 203.285,22.61876704673767 203.061,22.61876704673767 zM210.162,23.46566704673767 C210.331,23.46566704673767 210.467,23.52136704673767 210.571,23.63266704673767 C210.683,23.74396704673767 210.739,23.87916704673767 210.739,24.038267046737673 V27.21136704673767 C210.739,28.038367046737672 210.507,28.68256704673767 210.042,29.143767046737672 C209.586,29.59706704673767 208.937,29.82376704673767 208.096,29.82376704673767 C207.264,29.82376704673767 206.619,29.59706704673767 206.163,29.143767046737672 C205.706,28.68256704673767 205.478,28.038367046737672 205.478,27.21136704673767 V24.038267046737673 C205.478,23.87916704673767 205.53,23.74396704673767 205.634,23.63266704673767 C205.746,23.52136704673767 205.882,23.46566704673767 206.042,23.46566704673767 C206.211,23.46566704673767 206.347,23.52136704673767 206.451,23.63266704673767 C206.563,23.74396704673767 206.619,23.87916704673767 206.619,24.038267046737673 V27.21136704673767 C206.619,28.25306704673767 207.112,28.77396704673767 208.096,28.77396704673767 C208.585,28.77396704673767 208.957,28.64276704673767 209.214,28.38036704673767 C209.47,28.117867046737672 209.598,27.72826704673767 209.598,27.21136704673767 V24.038267046737673 C209.598,23.87916704673767 209.65,23.74396704673767 209.754,23.63266704673767 C209.866,23.52136704673767 210.002,23.46566704673767 210.162,23.46566704673767 zM219.865,23.35826704673767 C221.266,23.35826704673767 221.967,24.22516704673767 221.967,25.95876704673767 V29.143767046737672 C221.967,29.31076704673767 221.915,29.449967046737672 221.811,29.561267046737672 C221.707,29.66466704673767 221.571,29.71636704673767 221.402,29.71636704673767 C221.234,29.71636704673767 221.094,29.66066704673767 220.982,29.54936704673767 C220.878,29.43806704673767 220.826,29.30286704673767 220.826,29.143767046737672 V25.97076704673767 C220.826,24.92896704673767 220.385,24.40806704673767 219.505,24.40806704673767 C219.192,24.40806704673767 218.908,24.47956704673767 218.652,24.62276704673767 C218.403,24.757967046737672 218.207,24.94486704673767 218.063,25.183467046737672 C217.927,25.42196704673767 217.859,25.68446704673767 217.859,25.97076704673767 V29.143767046737672 C217.859,29.30286704673767 217.803,29.43806704673767 217.691,29.54936704673767 C217.587,29.66066704673767 217.451,29.71636704673767 217.282,29.71636704673767 C217.114,29.71636704673767 216.978,29.66466704673767 216.874,29.561267046737672 C216.77,29.449967046737672 216.718,29.31076704673767 216.718,29.143767046737672 V25.95876704673767 C216.718,25.489567046737672 216.618,25.11586704673767 216.418,24.83746704673767 C216.217,24.55116704673767 215.885,24.40806704673767 215.421,24.40806704673767 C214.948,24.40806704673767 214.556,24.55916704673767 214.243,24.86136704673767 C213.939,25.15556704673767 213.787,25.52136704673767 213.787,25.95876704673767 V29.143767046737672 C213.787,29.30286704673767 213.731,29.43806704673767 213.619,29.54936704673767 C213.515,29.66066704673767 213.379,29.71636704673767 213.21,29.71636704673767 C213.042,29.71636704673767 212.906,29.66466704673767 212.802,29.561267046737672 C212.698,29.449967046737672 212.646,29.31076704673767 212.646,29.143767046737672 V24.038267046737673 C212.646,23.87916704673767 212.698,23.74396704673767 212.802,23.63266704673767 C212.914,23.52136704673767 213.05,23.46566704673767 213.21,23.46566704673767 C213.379,23.46566704673767 213.515,23.52136704673767 213.619,23.63266704673767 C213.731,23.74396704673767 213.787,23.87916704673767 213.787,24.038267046737673 V24.45576704673767 C213.995,24.14556704673767 214.271,23.88716704673767 214.616,23.680367046737672 C214.968,23.46566704673767 215.349,23.35826704673767 215.757,23.35826704673767 C216.75,23.35826704673767 217.395,23.79566704673767 217.691,24.67046704673767 C217.867,24.33646704673767 218.159,24.03426704673767 218.568,23.763867046737673 C218.976,23.49346704673767 219.408,23.35826704673767 219.865,23.35826704673767 z" fill="#391F5B" id="svg_15" class=""/><path fill-rule="evenodd" clip-rule="evenodd" d="M244.822,22.79976704673767 C244.6,22.57916704673767 244.241,22.57916704673767 244.019,22.79976704673767 L241.235,25.55916704673767 L238.45,22.79406704673767 C238.229,22.573467046737672 237.869,22.573467046737672 237.647,22.79406704673767 C237.426,23.01456704673767 237.426,23.370867046737672 237.647,23.59136704673767 L240.432,26.35646704673767 L237.647,29.12156704673767 C237.426,29.34206704673767 237.426,29.69826704673767 237.647,29.91876704673767 C237.869,30.13936704673767 238.229,30.13936704673767 238.45,29.91876704673767 L241.235,27.15366704673767 L244.019,29.91876704673767 C244.241,30.13936704673767 244.6,30.13936704673767 244.822,29.91876704673767 C245.043,29.69826704673767 245.043,29.34206704673767 244.822,29.12156704673767 L242.037,26.35646704673767 L244.822,23.59136704673767 C245.038,23.37656704673767 245.038,23.01456704673767 244.822,22.79976704673767 z" fill="#391F5B" id="svg_16" class=""/><path d="M258.251,45.74076704673767 H258.752 V45.24376704673767 V23.37416704673767 C258.752,14.315567046737671 251.358,6.972047046737671 242.236,6.972047046737671 H95.0928 C85.9713,6.972047046737671 78.5768,14.315567046737671 78.5768,23.37416704673767 V45.24376704673767 V45.74076704673767 H79.0773 H258.251 z" stroke="#F9F8FB" id="svg_17" class=""/><path fill-rule="evenodd" clip-rule="evenodd" d="M264.257,43.255567046737674 C262.871,42.08606704673767 259.638,41.50136704673767 258.251,33.31486704673767 V43.255567046737674 H264.257 z" fill="#F9F8FB" id="svg_18" class=""/><path fill-rule="evenodd" clip-rule="evenodd" d="M287.994,26.30916704673767 H283.227 V31.042767046737673 C283.227,31.56346704673767 282.799,31.98956704673767 282.275,31.98956704673767 C281.75,31.98956704673767 281.322,31.56346704673767 281.322,31.042767046737673 V26.30916704673767 H276.555 C276.03,26.30916704673767 275.601,25.883067046737672 275.601,25.36236704673767 C275.601,24.841667046737673 276.03,24.41566704673767 276.555,24.41566704673767 H281.322 V19.68196704673767 C281.322,19.16126704673767 281.75,18.735267046737672 282.275,18.735267046737672 C282.799,18.735267046737672 283.227,19.16126704673767 283.227,19.68196704673767 V24.41566704673767 H287.994 C288.519,24.41566704673767 288.948,24.841667046737673 288.948,25.36236704673767 C288.948,25.883067046737672 288.519,26.30916704673767 287.994,26.30916704673767 z" fill="#391F5B" id="svg_19" class=""/><path d="M64.0627,21.338667046737672 C64.0627,24.632767046737673 61.3738,27.30306704673767 58.0569,27.30306704673767 C54.7399,27.30306704673767 52.051,24.632767046737673 52.051,21.338667046737672 C52.051,18.044667046737672 54.7399,15.374267046737671 58.0569,15.374267046737671 C61.3738,15.374267046737671 64.0627,18.044667046737672 64.0627,21.338667046737672 z" fill="#27CA40" id="svg_20" class=""/><path fill-rule="evenodd" clip-rule="evenodd" d="M58.0569,26.80606704673767 C61.0974,26.80606704673767 63.562200000000004,24.35826704673767 63.562200000000004,21.338667046737672 C63.562200000000004,18.319067046737672 61.0974,15.871267046737671 58.0569,15.871267046737671 C55.0163,15.871267046737671 52.5515,18.319067046737672 52.5515,21.338667046737672 C52.5515,24.35826704673767 55.0163,26.80606704673767 58.0569,26.80606704673767 zM58.0569,27.30306704673767 C61.3738,27.30306704673767 64.0627,24.632767046737673 64.0627,21.338667046737672 C64.0627,18.044667046737672 61.3738,15.374267046737671 58.0569,15.374267046737671 C54.7399,15.374267046737671 52.051,18.044667046737672 52.051,21.338667046737672 C52.051,24.632767046737673 54.7399,27.30306704673767 58.0569,27.30306704673767 z" fill="#3EAF3F" id="svg_21" class=""/><path d="M44.0433,21.338667046737672 C44.0433,24.632767046737673 41.3544,27.30306704673767 38.0374,27.30306704673767 C34.7205,27.30306704673767 32.0316,24.632767046737673 32.0316,21.338667046737672 C32.0316,18.044667046737672 34.7205,15.374267046737671 38.0374,15.374267046737671 C41.3544,15.374267046737671 44.0433,18.044667046737672 44.0433,21.338667046737672 z" fill="#FFC130" id="svg_22" class=""/><path fill-rule="evenodd" clip-rule="evenodd" d="M38.0374,26.80606704673767 C41.078,26.80606704673767 43.5428,24.35826704673767 43.5428,21.338667046737672 C43.5428,18.319067046737672 41.078,15.871267046737671 38.0374,15.871267046737671 C34.9969,15.871267046737671 32.5321,18.319067046737672 32.5321,21.338667046737672 C32.5321,24.35826704673767 34.9969,26.80606704673767 38.0374,26.80606704673767 zM38.0374,27.30306704673767 C41.3544,27.30306704673767 44.0433,24.632767046737673 44.0433,21.338667046737672 C44.0433,18.044667046737672 41.3544,15.374267046737671 38.0374,15.374267046737671 C34.7205,15.374267046737671 32.0316,18.044667046737672 32.0316,21.338667046737672 C32.0316,24.632767046737673 34.7205,27.30306704673767 38.0374,27.30306704673767 z" fill="#E1A325" id="svg_23" class=""/><path d="M24.0238,21.338667046737672 C24.0238,24.632767046737673 21.3349,27.30306704673767 18.018,27.30306704673767 C14.7011,27.30306704673767 12.0121,24.632767046737673 12.0121,21.338667046737672 C12.0121,18.044667046737672 14.7011,15.374267046737671 18.018,15.374267046737671 C21.3349,15.374267046737671 24.0238,18.044667046737672 24.0238,21.338667046737672 z" fill="#FF6058" id="svg_24" class=""/><path fill-rule="evenodd" clip-rule="evenodd" d="M18.018,26.80606704673767 C21.0585,26.80606704673767 23.5233,24.35826704673767 23.5233,21.338667046737672 C23.5233,18.319067046737672 21.0585,15.871267046737671 18.018,15.871267046737671 C14.9774,15.871267046737671 12.5126,18.319067046737672 12.5126,21.338667046737672 C12.5126,24.35826704673767 14.9774,26.80606704673767 18.018,26.80606704673767 zM18.018,27.30306704673767 C21.3349,27.30306704673767 24.0238,24.632767046737673 24.0238,21.338667046737672 C24.0238,18.044667046737672 21.3349,15.374267046737671 18.018,15.374267046737671 C14.7011,15.374267046737671 12.0121,18.044667046737672 12.0121,21.338667046737672 C12.0121,24.632767046737673 14.7011,27.30306704673767 18.018,27.30306704673767 z" fill="#E14942" id="svg_25" class=""/></g></svg>