<svg xmlns:xlink="http://www.w3.org/1999/xlink" xmlns="http://www.w3.org/2000/svg" width="231" height="64" viewBox="0 0 231 64" fill="none">
<g filter="url(#filter0_dddd)">
<path d="M96.8307 25.3859C96.2833 24.3747 95.5369 23.5723 94.5949 22.9894C93.6566 22.4064 92.5795 22.1114 91.3746 22.1114C90.4184 22.1114 89.5404 22.3129 88.73 22.7195C87.9231 23.1297 87.2655 23.7018 86.7573 24.4323V24.0401C86.7573 23.1873 86.0748 22.5 85.2359 22.5C84.3935 22.5 83.7146 23.1909 83.7146 24.0401V40.085C83.7146 40.9378 84.3971 41.6251 85.2359 41.6251C86.0783 41.6251 86.7573 40.9342 86.7573 40.085V33.1546C87.3153 33.9283 87.9942 34.522 88.8046 34.9466C89.6115 35.3712 90.493 35.5799 91.4492 35.5799C92.6222 35.5799 93.6814 35.2885 94.6163 34.7019C95.5547 34.119 96.294 33.313 96.8378 32.2946C97.3817 31.2727 97.6518 30.1249 97.6518 28.8474C97.6447 27.5485 97.371 26.397 96.8307 25.3859ZM93.9516 30.9705C93.6175 31.5858 93.1589 32.0715 92.576 32.4206C91.993 32.7732 91.3284 32.9459 90.5748 32.9459C89.8248 32.9459 89.1494 32.7732 88.5594 32.4206C87.9622 32.0679 87.4966 31.5822 87.166 30.9633C86.8283 30.3444 86.6613 29.6355 86.6613 28.8474C86.6613 28.045 86.8319 27.3362 87.1767 26.728C87.5179 26.1199 87.9836 25.6341 88.5701 25.2779C89.1565 24.9253 89.8283 24.749 90.5784 24.749C91.3319 24.749 91.993 24.9289 92.576 25.2779C93.1518 25.6341 93.6139 26.1199 93.9516 26.7352C94.2893 27.3505 94.4599 28.0594 94.4599 28.851C94.4563 29.6463 94.2893 30.3551 93.9516 30.9705ZM118.709 24.0437V24.4503C118.225 23.7162 117.575 23.1405 116.75 22.7303C115.922 22.3129 115.023 22.1114 114.045 22.1114C112.847 22.1114 111.777 22.4028 110.839 22.993C109.904 23.5831 109.165 24.3855 108.632 25.3967C108.099 26.4078 107.828 27.5556 107.828 28.8367C107.828 30.1392 108.106 31.2979 108.657 32.3198C109.211 33.3346 109.954 34.1334 110.892 34.7127C111.838 35.2956 112.89 35.5835 114.045 35.5835C115.001 35.5835 115.876 35.3748 116.679 34.9502C117.475 34.5256 118.151 33.9283 118.709 33.1582V33.6476C118.709 34.5004 119.391 35.1877 120.23 35.1877C121.072 35.1877 121.751 34.4968 121.751 33.6476V24.0437C121.751 23.1909 121.069 22.5036 120.23 22.5036C119.388 22.5 118.709 23.1909 118.709 24.0437ZM118.296 30.9705C117.962 31.5858 117.507 32.0715 116.924 32.4206C116.341 32.7732 115.673 32.9459 114.913 32.9459C114.155 32.9459 113.484 32.7732 112.901 32.4206C112.314 32.0679 111.859 31.5822 111.521 30.9597C111.187 30.3336 111.024 29.6319 111.024 28.8474C111.024 28.0558 111.191 27.3469 111.521 26.728C111.859 26.1091 112.318 25.6233 112.908 25.2707C113.494 24.9181 114.162 24.7454 114.916 24.7454C115.673 24.7454 116.341 24.9181 116.924 25.2707C117.5 25.6233 117.959 26.1091 118.296 26.728C118.631 27.3469 118.794 28.0558 118.794 28.8474C118.79 29.6463 118.631 30.3551 118.296 30.9705ZM139.51 35.1157C138.834 35.1157 138.287 34.5472 138.287 33.8419C138.287 33.3454 138.561 32.9172 138.959 32.7085C138.735 32.802 138.5 32.8488 138.248 32.8488C137.85 32.8488 137.544 32.7013 137.327 32.4026C137.107 32.1039 137 31.6793 137 31.1252V24.8461H138.724C139.36 24.8461 139.879 24.3208 139.879 23.6767C139.879 23.3528 139.748 23.0577 139.542 22.8454C139.332 22.6331 139.044 22.5036 138.724 22.5036H137V19.3011C137 18.4483 136.321 17.761 135.479 17.761C135.059 17.761 134.676 17.9337 134.402 18.2108C134.128 18.4879 133.958 18.8765 133.958 19.3011V22.5036H133.577C132.937 22.5036 132.418 23.029 132.418 23.6767C132.418 23.9969 132.546 24.292 132.756 24.5043C132.966 24.713 133.261 24.8461 133.577 24.8461H133.958V31.3375C133.958 32.6869 134.27 33.7268 134.896 34.468C135.529 35.2129 136.403 35.5835 137.53 35.5835C137.995 35.5835 138.465 35.5223 138.934 35.4C139.307 35.2992 139.645 35.1805 139.95 35.033C139.812 35.0869 139.666 35.1157 139.51 35.1157ZM151.012 24.0437V33.6476C151.012 34.5004 151.695 35.1877 152.533 35.1877C153.376 35.1877 154.055 34.4968 154.055 33.6476V24.0437C154.055 23.1909 153.372 22.5036 152.533 22.5036C151.695 22.5 151.012 23.1909 151.012 24.0437ZM154.126 17.0845C153.959 16.8074 153.738 16.5843 153.465 16.4152C153.191 16.2461 152.882 16.1633 152.54 16.1633C152.199 16.1633 151.89 16.2461 151.609 16.4152C151.332 16.5843 151.112 16.8074 150.945 17.0845C150.777 17.3616 150.696 17.6674 150.696 18.0201C150.696 18.3619 150.777 18.6786 150.945 18.9664C151.112 19.2471 151.332 19.4774 151.609 19.6465C151.886 19.8156 152.196 19.8984 152.54 19.8984C152.882 19.8984 153.191 19.8156 153.465 19.6465C153.738 19.4774 153.959 19.2507 154.126 18.9664C154.293 18.6786 154.375 18.3619 154.375 18.0201C154.375 17.671 154.289 17.3616 154.126 17.0845ZM176.405 22.5C175.563 22.5 174.881 23.1909 174.881 24.0437V29.1065C174.881 30.5423 174.657 31.5606 174.209 32.1579C173.757 32.7588 172.986 33.0611 171.895 33.0611C170.804 33.0611 170.029 32.7588 169.574 32.1579C169.122 31.557 168.898 30.5423 168.898 29.1065V24.0437C168.898 23.1909 168.216 22.5 167.373 22.5C166.531 22.5 165.849 23.1909 165.849 24.0437V29.7974C165.849 31.852 166.318 33.331 167.263 34.2305C168.202 35.1337 169.751 35.5799 171.895 35.5799C174.045 35.5799 175.581 35.1337 176.519 34.2305C177.458 33.3274 177.93 31.852 177.93 29.7974V24.0437C177.93 23.1909 177.248 22.5 176.405 22.5ZM209.441 24.2848C209.039 23.5867 208.492 23.0469 207.795 22.6691C207.099 22.2913 206.302 22.1078 205.396 22.1078C204.451 22.1078 203.615 22.3201 202.894 22.7555C202.169 23.1873 201.532 23.8062 200.981 24.605C200.665 23.8458 200.114 23.2413 199.346 22.7879C198.571 22.3309 197.697 22.1078 196.709 22.1078C195.934 22.1078 195.23 22.2625 194.594 22.572C193.958 22.8886 193.346 23.3708 192.767 24.0221C192.767 23.1801 192.091 22.4964 191.26 22.4964H191.231C190.4 22.4964 189.724 23.1801 189.724 24.0221V33.6404C189.724 34.4932 190.407 35.1805 191.246 35.1805C192.088 35.1805 192.767 34.4896 192.767 33.6404V27.1598C192.767 26.6992 192.898 26.2746 193.158 25.8824C193.417 25.4902 193.769 25.1736 194.21 24.9325C194.651 24.695 195.155 24.5762 195.717 24.5762C196.531 24.5762 197.174 24.8425 197.651 25.3823C198.12 25.9184 198.362 26.6345 198.362 27.5341V33.6476C198.362 34.5004 199.044 35.1877 199.883 35.1877C200.725 35.1877 201.404 34.4968 201.404 33.6476V27.1742C201.404 26.728 201.532 26.307 201.785 25.904C202.033 25.501 202.382 25.1808 202.819 24.9361C203.256 24.695 203.754 24.569 204.315 24.569C205.133 24.569 205.783 24.8461 206.267 25.4003C206.75 25.9508 206.996 26.6992 206.996 27.6384V33.6404C206.996 34.4932 207.678 35.1805 208.517 35.1805C209.359 35.1805 210.038 34.4896 210.038 33.6404V26.8C210.049 25.8249 209.85 24.99 209.441 24.2848ZM72.4646 29.5131C72.4646 30.7977 72.166 31.888 71.5653 32.7948C70.9681 33.698 70.1399 34.3889 69.0843 34.871C68.0286 35.346 66.8094 35.5835 65.4338 35.5835C64.4598 35.5835 63.5783 35.4612 62.7892 35.2129C61.9966 34.9646 61.2999 34.6587 60.6992 34.2917C60.1162 33.9355 59.6257 33.5792 59.2312 33.2158C59.1814 33.1762 59.1316 33.1331 59.089 33.0863C59.089 33.0863 59.089 33.0827 59.0854 33.0827C58.8153 32.8056 58.6482 32.435 58.6482 32.0212C58.6482 31.8628 58.6731 31.7081 58.7158 31.5642C58.7158 31.5606 58.7193 31.5534 58.7193 31.5498C58.8011 31.2979 58.9432 31.0748 59.1352 30.9057C59.4089 30.643 59.7857 30.4847 60.198 30.4847C60.4681 30.4847 60.7169 30.5495 60.9409 30.6682C61.0333 30.7186 61.1186 30.7761 61.1897 30.8373C61.4456 31.0496 61.7229 31.2583 62.025 31.4598C62.4906 31.7729 63.0132 32.0392 63.5961 32.2587C64.179 32.4782 64.8188 32.5897 65.5084 32.5897C66.1696 32.5897 66.7596 32.4746 67.2857 32.2479C67.8046 32.0212 68.2205 31.6829 68.5333 31.2403C68.8425 30.7977 68.9989 30.2544 68.9989 29.5995C68.9989 29.031 68.8816 28.5452 68.647 28.1386C68.416 27.732 68.0854 27.3793 67.6518 27.0771C67.2146 26.7748 66.7027 26.4941 66.0985 26.2135C65.5013 25.9472 64.8402 25.6521 64.1115 25.3463C63.5925 25.1268 63.0771 24.8641 62.5688 24.5618C62.0641 24.2596 61.6056 23.9069 61.1897 23.5003C60.7738 23.0937 60.4397 22.6187 60.1944 22.0718C59.9492 21.532 59.8283 20.9023 59.8283 20.1935C59.8283 19.427 59.9812 18.693 60.2797 17.9949C60.5748 17.2968 60.9942 16.6707 61.538 16.1274C62.0819 15.5876 62.7323 15.1558 63.4895 14.8428C64.2466 14.5261 65.089 14.3678 66.0203 14.3678C66.7774 14.3678 67.5167 14.4829 68.2312 14.706C68.9421 14.9291 69.5961 15.217 70.1897 15.5732C70.3212 15.656 70.4527 15.7351 70.5771 15.8251C70.6589 15.8683 70.7371 15.9259 70.8082 15.9798C71.1281 16.2425 71.3271 16.6347 71.3271 17.0701C71.3271 17.1529 71.3165 17.2428 71.3023 17.322C71.3023 17.3256 71.3023 17.3256 71.3023 17.3328C71.2418 17.6351 71.0854 17.9013 70.8651 18.0992H70.8615C70.6127 18.3331 70.2643 18.4771 69.8911 18.4771C69.6174 18.4771 69.3579 18.3979 69.1411 18.2684C68.7039 17.9805 68.2312 17.7538 67.7122 17.5811C67.1968 17.4084 66.6494 17.322 66.0807 17.322C65.4089 17.322 64.8437 17.4515 64.3781 17.7178C63.9124 17.9805 63.557 18.3223 63.3046 18.7469C63.0594 19.1715 62.9314 19.6393 62.9314 20.1395C62.9314 20.5605 63.0203 20.9239 63.1944 21.2262C63.3722 21.5284 63.6103 21.7875 63.9124 21.9998C64.2217 22.2193 64.5771 22.41 64.9859 22.59C65.3982 22.7699 65.8212 22.9426 66.2726 23.1153C67.1577 23.4859 67.9824 23.8602 68.7359 24.2308C69.493 24.6014 70.147 25.0224 70.7051 25.501C71.2596 25.9652 71.6897 26.5301 71.9918 27.185C72.3117 27.8363 72.4646 28.6136 72.4646 29.5131ZM140.736 33.8419C140.736 34.2845 140.519 34.6731 140.192 34.9034C140.181 34.907 140.178 34.9142 140.171 34.9142C140.096 34.9538 140.025 34.9934 139.947 35.033C139.808 35.0869 139.663 35.1157 139.506 35.1157C138.831 35.1157 138.283 34.5472 138.283 33.8419C138.283 33.3454 138.557 32.9172 138.955 32.7085C138.991 32.6869 139.03 32.6689 139.069 32.6545C139.197 32.6041 139.339 32.5753 139.481 32.5717H139.51C140.189 32.5681 140.736 33.1403 140.736 33.8419ZM16.9787 40.067C17.1209 40.2649 17.3058 40.4305 17.5155 40.5456C18.6956 41.5567 20.0321 42.3879 21.4894 43.0177C23.0072 43.669 24.6067 44 26.2027 44C27.7311 44 29.2631 43.7013 30.7205 43.104C33.7062 41.8842 36.0416 39.5597 37.2999 36.5587C38.1885 34.4428 37.8792 32.0032 36.4894 30.1788C36.9906 28.448 36.852 26.5805 36.0949 24.9361C35.3271 23.252 33.9728 21.9243 32.288 21.2046C29.4871 19.9992 26.224 20.672 24.1055 22.8742C23.878 22.1761 23.9065 21.4241 24.1944 20.744C25.1043 18.5634 26.807 16.8794 28.9752 15.9906C31.1434 15.1054 33.525 15.127 35.6719 16.0554C41.9065 18.729 44.8212 26.0408 42.1731 32.3522C42.0771 32.5825 41.9314 32.9028 41.8247 33.1367C41.8212 33.1403 41.8212 33.1474 41.8141 33.151C41.7928 33.1942 41.7714 33.2374 41.7572 33.2806C41.7572 33.2806 41.7572 33.2806 41.7572 33.2842C41.7217 33.3705 41.6932 33.4533 41.6719 33.5469C41.6399 33.6692 41.6257 33.8023 41.6257 33.9355C41.6257 34.8567 42.3615 35.6087 43.275 35.6087C43.8544 35.6087 44.3662 35.3064 44.6612 34.8459C44.6932 34.8027 44.7181 34.7487 44.7465 34.7019C44.7572 34.6767 44.7714 34.6551 44.7821 34.6264C44.8781 34.4177 45.0665 33.9967 45.2122 33.6548C46.8401 29.7758 46.8757 25.4902 45.3224 21.5824C43.7655 17.6782 40.7939 14.6269 36.9693 12.9788C34.0048 11.705 30.724 11.6726 27.7418 12.8925C24.756 14.1123 22.4207 16.4368 21.1624 19.4378C20.5048 21.0031 20.487 22.7375 21.1197 24.31C21.3934 25.0044 21.7773 25.6305 22.2678 26.1811C21.3295 29.7506 23.1529 33.5181 26.5226 34.9682C28.3354 35.7454 30.3401 35.7634 32.1707 35.015C33.0238 34.6623 33.7916 34.1694 34.4562 33.5397C34.5629 34.1154 34.4989 34.7055 34.2679 35.2561C32.384 39.754 27.2299 41.859 22.7868 39.9447C21.6245 39.4445 20.5759 38.7824 19.6553 37.9944C19.538 37.8469 19.3958 37.7173 19.2359 37.6094C15.5498 34.1514 14.2098 28.5956 16.2821 23.6479C16.3389 23.5147 16.4207 23.3348 16.4989 23.1585V23.1549C16.5024 23.1297 16.5202 23.1081 16.5309 23.0793C16.6162 22.8814 16.6588 22.6583 16.6588 22.428V22.3813C16.6268 21.4637 15.8697 20.7404 14.9598 20.7656C14.5404 20.78 14.1636 20.9527 13.8863 21.2226C13.7441 21.3521 13.6268 21.5105 13.5451 21.6868C13.5415 21.6904 13.5415 21.6976 13.5344 21.7012C13.5131 21.7443 13.4918 21.7875 13.4776 21.8307C13.3994 21.9998 13.314 22.1869 13.2501 22.3417C11.6221 26.2207 11.583 30.5063 13.1399 34.4141C14.0107 36.5946 15.3188 38.5126 16.9787 40.067ZM33.1624 29.7038C32.2844 31.7981 29.878 32.784 27.8093 31.8952C25.7335 30.9992 24.7667 28.5704 25.6446 26.469C26.3022 24.8965 27.82 23.9537 29.4089 23.9537C29.942 23.9537 30.4788 24.0617 30.9977 24.2848C33.0735 25.1736 34.0404 27.6024 33.1624 29.7038Z" fill="white"/>
</g>
<defs>
<filter id="filter0_dddd" x="0" y="0" width="230.039" height="64" filterUnits="userSpaceOnUse" color-interpolation-filters="sRGB">
<feFlood flood-opacity="0" result="BackgroundImageFix"/>
<feColorMatrix in="SourceAlpha" type="matrix" values="0 0 0 0 0 0 0 0 0 0 0 0 0 0 0 0 0 0 127 0"/>
<feOffset dx="4" dy="4"/>
<feGaussianBlur stdDeviation="8"/>
<feColorMatrix type="matrix" values="0 0 0 0 0.223529 0 0 0 0 0.121569 0 0 0 0 0.356863 0 0 0 0.32 0"/>
<feBlend mode="normal" in2="BackgroundImageFix" result="effect1_dropShadow"/>
<feColorMatrix in="SourceAlpha" type="matrix" values="0 0 0 0 0 0 0 0 0 0 0 0 0 0 0 0 0 0 127 0"/>
<feOffset dx="1" dy="1"/>
<feGaussianBlur stdDeviation="2"/>
<feColorMatrix type="matrix" values="0 0 0 0 0.223529 0 0 0 0 0.121569 0 0 0 0 0.356863 0 0 0 0.6 0"/>
<feBlend mode="normal" in2="effect1_dropShadow" result="effect2_dropShadow"/>
<feColorMatrix in="SourceAlpha" type="matrix" values="0 0 0 0 0 0 0 0 0 0 0 0 0 0 0 0 0 0 127 0"/>
<feOffset/>
<feGaussianBlur stdDeviation="6"/>
<feColorMatrix type="matrix" values="0 0 0 0 1 0 0 0 0 1 0 0 0 0 1 0 0 0 0.2 0"/>
<feBlend mode="normal" in2="effect2_dropShadow" result="effect3_dropShadow"/>
<feColorMatrix in="SourceAlpha" type="matrix" values="0 0 0 0 0 0 0 0 0 0 0 0 0 0 0 0 0 0 127 0"/>
<feOffset/>
<feGaussianBlur stdDeviation="2"/>
<feColorMatrix type="matrix" values="0 0 0 0 1 0 0 0 0 1 0 0 0 0 1 0 0 0 0.4 0"/>
<feBlend mode="normal" in2="effect3_dropShadow" result="effect4_dropShadow"/>
<feBlend mode="normal" in="SourceGraphic" in2="effect4_dropShadow" result="shape"/>
</filter>
</defs>
</svg>