<svg xmlns:xlink="http://www.w3.org/1999/xlink" width="217" height="56" viewBox="0 0 217 56" fill="none" xmlns="http://www.w3.org/2000/svg"> <g filter="url(#filter0_dd)" fill="none"> <path d="M100.26 19.3859C99.7293 18.3747 99.0055 17.5723 98.0921 16.9894C97.1821 16.4064 96.1377 16.1114 94.9693 16.1114C94.0421 16.1114 93.1907 16.3129 92.4049 16.7195C91.6224 17.1297 90.9848 17.7018 90.4919 18.4323V18.0401C90.4919 17.1873 89.8301 16.5 89.0167 16.5C88.1998 16.5 87.5414 17.1909 87.5414 18.0401V34.085C87.5414 34.9378 88.2032 35.6251 89.0167 35.6251C89.8335 35.6251 90.4919 34.9342 90.4919 34.085V27.1546C91.033 27.9283 91.6914 28.522 92.4772 28.9466C93.2597 29.3712 94.1145 29.5799 95.0416 29.5799C96.1791 29.5799 97.2062 29.2885 98.1127 28.7019C99.0227 28.119 99.7396 27.313 100.267 26.2946C100.794 25.2727 101.056 24.1249 101.056 22.8474C101.049 21.5485 100.784 20.397 100.26 19.3859ZM97.4682 24.9705C97.1442 25.5858 96.6996 26.0715 96.1343 26.4206C95.569 26.7732 94.9245 26.9459 94.1937 26.9459C93.4665 26.9459 92.8116 26.7732 92.2394 26.4206C91.6603 26.0679 91.2088 25.5822 90.8883 24.9633C90.5608 24.3444 90.3988 23.6355 90.3988 22.8474C90.3988 22.045 90.5643 21.3362 90.8986 20.728C91.2295 20.1199 91.681 19.6341 92.2497 19.2779C92.8185 18.9253 93.4699 18.749 94.1972 18.749C94.9279 18.749 95.569 18.9289 96.1343 19.2779C96.6927 19.6341 97.1407 20.1199 97.4682 20.7352C97.7956 21.3505 97.9611 22.0594 97.9611 22.851C97.9576 23.6463 97.7956 24.3551 97.4682 24.9705ZM121.475 18.0437V18.4503C121.006 17.7162 120.376 17.1405 119.576 16.7303C118.773 16.3129 117.901 16.1114 116.953 16.1114C115.791 16.1114 114.754 16.4028 113.844 16.993C112.937 17.5831 112.22 18.3855 111.703 19.3967C111.186 20.4078 110.924 21.5556 110.924 22.8367C110.924 24.1392 111.193 25.2979 111.728 26.3198C112.265 27.3346 112.986 28.1334 113.896 28.7127C114.812 29.2956 115.833 29.5835 116.953 29.5835C117.88 29.5835 118.728 29.3748 119.507 28.9502C120.279 28.5256 120.934 27.9283 121.475 27.1582V27.6476C121.475 28.5004 122.137 29.1877 122.95 29.1877C123.767 29.1877 124.426 28.4968 124.426 27.6476V18.0437C124.426 17.1909 123.764 16.5036 122.95 16.5036C122.133 16.5 121.475 17.1909 121.475 18.0437ZM121.075 24.9705C120.751 25.5858 120.31 26.0715 119.745 26.4206C119.18 26.7732 118.532 26.9459 117.794 26.9459C117.06 26.9459 116.408 26.7732 115.843 26.4206C115.274 26.0679 114.833 25.5822 114.506 24.9597C114.182 24.3336 114.023 23.6319 114.023 22.8474C114.023 22.0558 114.185 21.3469 114.506 20.728C114.833 20.1091 115.278 19.6233 115.85 19.2707C116.419 18.9181 117.067 18.7454 117.797 18.7454C118.532 18.7454 119.18 18.9181 119.745 19.2707C120.303 19.6233 120.748 20.1091 121.075 20.728C121.399 21.3469 121.558 22.0558 121.558 22.8474C121.554 23.6463 121.399 24.3551 121.075 24.9705ZM141.646 29.1157C140.991 29.1157 140.46 28.5472 140.46 27.8419C140.46 27.3454 140.725 26.9172 141.111 26.7085C140.894 26.802 140.667 26.8488 140.422 26.8488C140.036 26.8488 139.74 26.7013 139.529 26.4026C139.316 26.1039 139.212 25.6793 139.212 25.1252V18.8461H140.884C141.501 18.8461 142.004 18.3208 142.004 17.6767C142.004 17.3528 141.877 17.0577 141.677 16.8454C141.473 16.6331 141.194 16.5036 140.884 16.5036H139.212V13.3011C139.212 12.4483 138.554 11.761 137.737 11.761C137.33 11.761 136.958 11.9337 136.693 12.2108C136.427 12.4879 136.262 12.8765 136.262 13.3011V16.5036H135.893C135.273 16.5036 134.769 17.029 134.769 17.6767C134.769 17.9969 134.893 18.292 135.097 18.5043C135.3 18.713 135.586 18.8461 135.893 18.8461H136.262V25.3375C136.262 26.6869 136.565 27.7268 137.172 28.468C137.785 29.2129 138.633 29.5835 139.726 29.5835C140.177 29.5835 140.632 29.5223 141.087 29.4C141.449 29.2992 141.777 29.1805 142.073 29.033C141.939 29.0869 141.797 29.1157 141.646 29.1157ZM152.8 18.0437V27.6476C152.8 28.5004 153.461 29.1877 154.275 29.1877C155.092 29.1877 155.75 28.4968 155.75 27.6476V18.0437C155.75 17.1909 155.088 16.5036 154.275 16.5036C153.461 16.5 152.8 17.1909 152.8 18.0437ZM155.819 11.0845C155.657 10.8074 155.443 10.5843 155.178 10.4152C154.912 10.2461 154.613 10.1633 154.282 10.1633C153.951 10.1633 153.651 10.2461 153.379 10.4152C153.11 10.5843 152.896 10.8074 152.734 11.0845C152.572 11.3616 152.493 11.6674 152.493 12.0201C152.493 12.3619 152.572 12.6786 152.734 12.9664C152.896 13.2471 153.11 13.4774 153.379 13.6465C153.647 13.8156 153.947 13.8984 154.282 13.8984C154.613 13.8984 154.912 13.8156 155.178 13.6465C155.443 13.4774 155.657 13.2507 155.819 12.9664C155.981 12.6786 156.06 12.3619 156.06 12.0201C156.06 11.671 155.978 11.3616 155.819 11.0845ZM177.423 16.5C176.607 16.5 175.945 17.1909 175.945 18.0437V23.1065C175.945 24.5423 175.728 25.5606 175.293 26.1579C174.856 26.7588 174.108 27.0611 173.049 27.0611C171.991 27.0611 171.24 26.7588 170.799 26.1579C170.361 25.557 170.144 24.5423 170.144 23.1065V18.0437C170.144 17.1909 169.482 16.5 168.665 16.5C167.848 16.5 167.186 17.1909 167.186 18.0437V23.7974C167.186 25.852 167.641 27.331 168.558 28.2305C169.468 29.1337 170.971 29.5799 173.049 29.5799C175.135 29.5799 176.624 29.1337 177.534 28.2305C178.444 27.3274 178.902 25.852 178.902 23.7974V18.0437C178.902 17.1909 178.24 16.5 177.423 16.5ZM209.458 18.2848C209.068 17.5867 208.538 17.0469 207.862 16.6691C207.187 16.2913 206.414 16.1078 205.536 16.1078C204.619 16.1078 203.809 16.3201 203.109 16.7555C202.406 17.1873 201.789 17.8062 201.255 18.605C200.948 17.8458 200.414 17.2413 199.669 16.7879C198.918 16.3309 198.07 16.1078 197.112 16.1078C196.36 16.1078 195.678 16.2625 195.061 16.572C194.444 16.8886 193.851 17.3708 193.289 18.0221C193.289 17.1801 192.634 16.4964 191.828 16.4964H191.8C190.993 16.4964 190.339 17.1801 190.339 18.0221V27.6404C190.339 28.4932 191 29.1805 191.814 29.1805C192.631 29.1805 193.289 28.4896 193.289 27.6404V21.1598C193.289 20.6992 193.417 20.2746 193.668 19.8824C193.92 19.4902 194.261 19.1736 194.688 18.9325C195.116 18.695 195.605 18.5762 196.15 18.5762C196.939 18.5762 197.563 18.8425 198.025 19.3823C198.48 19.9184 198.714 20.6345 198.714 21.5341V27.6476C198.714 28.5004 199.376 29.1877 200.19 29.1877C201.006 29.1877 201.665 28.4968 201.665 27.6476V21.1742C201.665 20.728 201.789 20.307 202.034 19.904C202.275 19.501 202.613 19.1808 203.037 18.9361C203.461 18.695 203.943 18.569 204.488 18.569C205.28 18.569 205.911 18.8461 206.38 19.4003C206.849 19.9508 207.087 20.6992 207.087 21.6384V27.6404C207.087 28.4932 207.748 29.1805 208.562 29.1805C209.379 29.1805 210.037 28.4896 210.037 27.6404V20.8C210.047 19.8249 209.854 18.99 209.458 18.2848ZM76.6323 23.5131C76.6323 24.7977 76.3428 25.888 75.7603 26.7948C75.1812 27.698 74.3781 28.3889 73.3544 28.871C72.3307 29.346 71.1485 29.5835 69.8146 29.5835C68.8701 29.5835 68.0153 29.4612 67.2501 29.2129C66.4815 28.9646 65.8059 28.6587 65.2234 28.2917C64.6582 27.9355 64.1825 27.5792 63.7999 27.2158C63.7517 27.1762 63.7034 27.1331 63.662 27.0863C63.662 27.0863 63.662 27.0827 63.6586 27.0827C63.3966 26.8056 63.2346 26.435 63.2346 26.0212C63.2346 25.8628 63.2588 25.7081 63.3001 25.5642C63.3001 25.5606 63.3036 25.5534 63.3036 25.5498C63.3828 25.2979 63.5207 25.0748 63.7068 24.9057C63.9722 24.643 64.3376 24.4847 64.7374 24.4847C64.9994 24.4847 65.2407 24.5495 65.4578 24.6682C65.5474 24.7186 65.6302 24.7761 65.6991 24.8373C65.9473 25.0496 66.2161 25.2583 66.5091 25.4598C66.9606 25.7729 67.4673 26.0392 68.0326 26.2587C68.5978 26.4782 69.2183 26.5897 69.8869 26.5897C70.5281 26.5897 71.1002 26.4746 71.6103 26.2479C72.1136 26.0212 72.5168 25.6829 72.8202 25.2403C73.12 24.7977 73.2717 24.2544 73.2717 23.5995C73.2717 23.031 73.158 22.5452 72.9305 22.1386C72.7064 21.732 72.3859 21.3793 71.9654 21.0771C71.5414 20.7748 71.0451 20.4941 70.4591 20.2135C69.8801 19.9472 69.2389 19.6521 68.5324 19.3463C68.0291 19.1268 67.5293 18.8641 67.0364 18.5618C66.547 18.2596 66.1024 17.9069 65.6991 17.5003C65.2958 17.0937 64.9718 16.6187 64.734 16.0718C64.4962 15.532 64.379 14.9023 64.379 14.1935C64.379 13.427 64.5272 12.693 64.8167 11.9949C65.1028 11.2968 65.5095 10.6707 66.0369 10.1274C66.5642 9.58761 67.195 9.15581 67.9292 8.84276C68.6633 8.52611 69.4802 8.36778 70.3833 8.36778C71.1175 8.36778 71.8344 8.48293 72.5272 8.70602C73.2166 8.92912 73.8508 9.21698 74.4264 9.57322C74.5539 9.65598 74.6814 9.73514 74.8021 9.8251C74.8814 9.86828 74.9572 9.92585 75.0261 9.97983C75.3363 10.2425 75.5294 10.6347 75.5294 11.0701C75.5294 11.1529 75.519 11.2428 75.5052 11.322C75.5052 11.3256 75.5052 11.3256 75.5052 11.3328C75.4466 11.6351 75.295 11.9013 75.0813 12.0992H75.0778C74.8365 12.3331 74.4988 12.4771 74.1368 12.4771C73.8714 12.4771 73.6198 12.3979 73.4096 12.2684C72.9856 11.9805 72.5272 11.7538 72.024 11.5811C71.5242 11.4084 70.9934 11.322 70.4419 11.322C69.7904 11.322 69.2424 11.4515 68.7909 11.7178C68.3393 11.9805 67.9947 12.3223 67.7499 12.7469C67.5121 13.1715 67.388 13.6393 67.388 14.1395C67.388 14.5605 67.4742 14.9239 67.6431 15.2262C67.8154 15.5284 68.0464 15.7875 68.3393 15.9998C68.6392 16.2193 68.9839 16.41 69.3803 16.59C69.7801 16.7699 70.1903 16.9426 70.628 17.1153C71.4863 17.4859 72.2859 17.8602 73.0166 18.2308C73.7508 18.6014 74.385 19.0224 74.9262 19.501C75.4639 19.9652 75.8809 20.5301 76.1739 21.185C76.4841 21.8363 76.6323 22.6136 76.6323 23.5131ZM142.835 27.8419C142.835 28.2845 142.625 28.6731 142.308 28.9034C142.297 28.907 142.294 28.9142 142.287 28.9142C142.214 28.9538 142.146 28.9934 142.07 29.033C141.935 29.0869 141.794 29.1157 141.642 29.1157C140.987 29.1157 140.457 28.5472 140.457 27.8419C140.457 27.3454 140.722 26.9172 141.108 26.7085C141.143 26.6869 141.18 26.6689 141.218 26.6545C141.342 26.6041 141.48 26.5753 141.618 26.5717H141.646C142.304 26.5681 142.835 27.1403 142.835 27.8419ZM22.8279 34.067C22.9657 34.2649 23.145 34.4305 23.3483 34.5456C24.4927 35.5567 25.7887 36.3879 27.2019 37.0177C28.6736 37.669 30.2247 38 31.7723 38C33.2544 38 34.74 37.7013 36.1532 37.104C39.0485 35.8842 41.313 33.5597 42.5332 30.5587C43.3949 28.4428 43.095 26.0032 41.7473 24.1788C42.2333 22.448 42.0989 20.5805 41.3647 18.9361C40.6202 17.252 39.307 15.9243 37.6732 15.2046C34.9571 13.9992 31.793 14.672 29.7387 16.8742C29.5181 16.1761 29.5457 15.4241 29.8249 14.744C30.7072 12.5634 32.3583 10.8794 34.4608 9.99062C36.5633 9.10544 38.8727 9.12703 40.9546 10.0554C47.0002 12.729 49.8266 20.0408 47.2587 26.3522C47.1657 26.5825 47.0244 26.9028 46.921 27.1367C46.9175 27.1403 46.9175 27.1474 46.9106 27.151C46.8899 27.1942 46.8693 27.2374 46.8555 27.2806C46.8555 27.2806 46.8555 27.2806 46.8555 27.2842C46.821 27.3705 46.7934 27.4533 46.7727 27.5469C46.7417 27.6692 46.7279 27.8023 46.7279 27.9355C46.7279 28.8567 47.4414 29.6087 48.3273 29.6087C48.8891 29.6087 49.3854 29.3064 49.6715 28.8459C49.7025 28.8027 49.7267 28.7487 49.7542 28.7019C49.7646 28.6767 49.7784 28.6551 49.7887 28.6264C49.8818 28.4177 50.0644 27.9967 50.2058 27.6548C51.7844 23.7758 51.8189 19.4902 50.3126 15.5824C48.8029 11.6782 45.9214 8.62686 42.2126 6.97883C39.338 5.70502 36.1566 5.67263 33.2648 6.89247C30.3695 8.1123 28.1049 10.4368 26.8847 13.4378C26.2471 15.0031 26.2299 16.7375 26.8434 18.31C27.1088 19.0044 27.481 19.6305 27.9567 20.1811C27.0467 23.7506 28.815 27.5181 32.0825 28.9682C33.8404 29.7454 35.7844 29.7634 37.5595 29.015C38.3867 28.6623 39.1312 28.1694 39.7758 27.5397C39.8792 28.1154 39.8171 28.7055 39.5931 29.2561C37.7663 33.754 32.7684 35.859 28.4599 33.9447C27.3328 33.4445 26.316 32.7824 25.4233 31.9944C25.3096 31.8469 25.1717 31.7173 25.0166 31.6094C21.4423 28.1514 20.1428 22.5956 22.1523 17.6479C22.2074 17.5147 22.2867 17.3348 22.3626 17.1585V17.1549C22.366 17.1297 22.3832 17.1081 22.3936 17.0793C22.4763 16.8814 22.5177 16.6583 22.5177 16.428V16.3813C22.4866 15.4637 21.7525 14.7404 20.8701 14.7656C20.4634 14.78 20.098 14.9527 19.8292 15.2226C19.6913 15.3521 19.5775 15.5105 19.4983 15.6868C19.4948 15.6904 19.4948 15.6976 19.4879 15.7012C19.4672 15.7443 19.4466 15.7875 19.4328 15.8307C19.3569 15.9998 19.2742 16.1869 19.2122 16.3417C17.6336 20.2207 17.5956 24.5063 19.1053 28.4141C19.9498 30.5946 21.2182 32.5126 22.8279 34.067ZM38.5211 23.7038C37.6698 25.7981 35.3363 26.784 33.3303 25.8952C31.3173 24.9992 30.3798 22.5704 31.2312 20.469C31.8688 18.8965 33.3406 17.9537 34.8813 17.9537C35.3983 17.9537 35.9188 18.0617 36.422 18.2848C38.435 19.1736 39.3725 21.6024 38.5211 23.7038Z" fill="#391F5B"></path> </g> <defs> <filter id="filter0_dd" x="0" y="0" width="216.037" height="56" filterUnits="userSpaceOnUse" color-interpolation-filters="sRGB"> <feFlood flood-opacity="0" result="BackgroundImageFix"></feFlood> <feColorMatrix in="SourceAlpha" type="matrix" values="0 0 0 0 0 0 0 0 0 0 0 0 0 0 0 0 0 0 127 0"></feColorMatrix> <feOffset dx="-6" dy="6"></feOffset> <feGaussianBlur stdDeviation="6"></feGaussianBlur> <feColorMatrix type="matrix" values="0 0 0 0 0.702533 0 0 0 0 0.518438 0 0 0 0 0.7875 0 0 0 0.6 0"></feColorMatrix> <feBlend mode="normal" in2="BackgroundImageFix" result="effect1_dropShadow"></feBlend> <feColorMatrix in="SourceAlpha" type="matrix" values="0 0 0 0 0 0 0 0 0 0 0 0 0 0 0 0 0 0 127 0"></feColorMatrix> <feOffset dx="-2" dy="2"></feOffset> <feGaussianBlur stdDeviation="2"></feGaussianBlur> <feColorMatrix type="matrix" values="0 0 0 0 0.702533 0 0 0 0 0.518438 0 0 0 0 0.7875 0 0 0 0.6 0"></feColorMatrix> <feBlend mode="normal" in2="effect1_dropShadow" result="effect2_dropShadow"></feBlend> <feBlend mode="normal" in="SourceGraphic" in2="effect2_dropShadow" result="shape"></feBlend> </filter> </defs> </svg>